<?xml version="1.0" standalone="no"?>
<!DOCTYPE svg PUBLIC "-//W3C//DTD SVG 20010904//EN"
 "http://www.w3.org/TR/2001/REC-SVG-20010904/DTD/svg10.dtd">
<svg version="1.0" xmlns="http://www.w3.org/2000/svg"
 width="1877.000000pt" height="1877.000000pt" viewBox="0 0 1877.000000 1877.000000"
 preserveAspectRatio="xMidYMid meet">

<g transform="translate(0.000000,1877.000000) scale(0.100000,-0.100000)"
fill="#000000" stroke="none">
<path d="M0 9385 l0 -9385 9385 0 9385 0 0 9385 0 9385 -9385 0 -9385 0 0
-9385z m9650 7595 c118 -6 285 -17 370 -25 1825 -179 3481 -1138 4554 -2638
958 -1340 1355 -2998 1110 -4642 -234 -1573 -1062 -3009 -2312 -4013 -1297
-1041 -2943 -1529 -4602 -1366 -775 76 -1551 301 -2240 650 -843 427 -1585
1039 -2166 1789 -1194 1539 -1611 3535 -1138 5440 357 1437 1230 2726 2439
3602 1008 730 2191 1143 3445 1202 246 12 305 12 540 1z m-1024 -14024 c77
-20 148 -63 203 -121 89 -94 125 -196 125 -350 0 -249 -120 -454 -324 -553
-164 -80 -296 -76 -473 16 -202 105 -292 373 -213 637 36 117 69 177 136 245
61 60 138 103 227 124 76 19 254 20 319 2z m784 -165 l5 -164 148 167 149 166
30 -17 c16 -10 77 -62 134 -116 83 -79 102 -102 95 -115 -5 -9 -62 -77 -125
-150 l-116 -132 63 -78 c95 -117 142 -185 139 -200 -2 -8 1 -11 7 -8 5 4 15
-3 21 -15 8 -15 9 -19 1 -15 -6 4 -11 0 -11 -10 0 -11 -6 -15 -19 -11 -16 4
-21 -2 -26 -24 -4 -16 -11 -32 -17 -35 -7 -5 -9 0 -6 14 4 12 2 22 -3 22 -5 0
-9 -7 -9 -16 0 -11 -6 -14 -20 -9 -14 5 -20 2 -20 -9 0 -9 -5 -16 -11 -16 -6
0 -9 7 -6 15 4 8 2 17 -3 20 -4 3 -11 -9 -15 -26 -5 -20 -12 -29 -21 -25 -7 3
-16 1 -19 -4 -4 -6 1 -10 9 -10 9 0 16 -5 16 -10 0 -6 -6 -10 -12 -8 -7 2 -13
-2 -13 -7 0 -6 3 -9 8 -8 4 2 7 -1 7 -7 0 -5 -10 -8 -22 -6 -18 2 -22 9 -20
27 2 13 0 20 -5 16 -4 -5 -8 -14 -8 -20 0 -5 -6 -12 -14 -15 -9 -3 -11 1 -6
17 4 12 2 21 -4 21 -6 0 -10 -5 -8 -11 1 -6 -4 -14 -12 -16 -10 -4 -11 1 -6
18 5 18 4 20 -4 9 -9 -13 -12 -12 -25 5 -8 11 -23 31 -35 44 -11 13 -18 28
-15 33 3 4 1 7 -4 6 -6 -2 -27 19 -47 46 l-38 49 -43 -49 -43 -49 -1 -82 0
-81 -75 -7 c-79 -8 -250 -3 -260 7 -8 8 -20 1012 -12 1032 6 15 26 16 174 14
l168 -3 5 -164z m-1623 146 c4 -5 9 -135 11 -290 4 -319 -4 -381 -61 -502 -89
-186 -280 -293 -474 -265 -77 11 -152 30 -159 41 -3 5 -14 9 -25 9 -10 0 -24
9 -31 20 -7 11 -17 20 -22 20 -14 0 -56 42 -56 56 0 7 -5 14 -12 16 -7 3 -8 9
-3 18 6 10 11 9 22 -5 16 -23 17 -12 2 17 -9 16 -13 18 -20 7 -4 -7 -11 -10
-16 -6 -7 8 0 14 37 37 8 4 11 12 7 16 -5 5 -12 2 -17 -6 -5 -8 -12 -11 -16
-8 -8 8 20 38 35 38 7 0 9 10 5 25 -4 16 -2 25 6 25 6 0 9 4 5 10 -3 5 -14 2
-25 -7 -14 -12 -16 -19 -8 -24 7 -5 9 -11 4 -16 -4 -4 -12 0 -17 9 -11 20 -12
28 -3 27 4 0 10 4 13 9 3 5 42 32 85 60 76 49 104 57 92 25 -3 -8 -2 -11 3 -8
6 3 22 -10 36 -30 67 -88 214 -56 259 55 26 65 39 228 34 437 l-4 192 31 4
c51 8 273 2 282 -6z m3691 -3 c189 -39 287 -127 327 -296 26 -111 12 -245 -34
-336 -10 -20 -37 -58 -59 -83 l-41 -46 60 -87 c32 -48 57 -92 53 -97 -3 -5 2
-9 10 -9 8 0 18 -5 21 -10 5 -9 -28 -9 -52 -1 -10 3 -18 -1 -19 -9 -3 -21 -4
-22 -19 -10 -15 12 -16 11 -19 -12 -1 -8 -11 -12 -26 -10 -14 2 -21 0 -17 -5
5 -4 13 -9 18 -9 18 -3 20 -4 15 -13 -4 -5 -25 -3 -50 4 l-44 13 -12 -44 c-7
-24 -17 -44 -21 -44 -11 0 -11 3 1 34 6 16 6 27 0 31 -6 4 -10 -3 -10 -15 0
-13 -5 -20 -12 -17 -7 2 -12 12 -12 21 1 9 -3 16 -10 16 -6 0 -17 10 -25 23
-8 12 -37 52 -64 90 -49 65 -52 67 -94 67 l-43 0 -1 -57 c-1 -32 0 -72 1 -90
2 -42 -8 -44 -190 -41 l-145 3 -8 230 c-7 224 -1 794 9 804 23 23 406 27 512
5z m-640 -156 l3 -148 -211 0 -210 0 0 -45 0 -45 163 -1 c89 -1 176 0 194 1
37 2 42 -9 41 -92 0 -36 -4 -58 -11 -58 -8 0 -7 -4 1 -12 14 -14 16 -58 2 -58
-6 0 -6 -9 0 -26 16 -41 13 -43 -57 -42 -38 0 -128 0 -200 -1 l-133 -1 0 -40
0 -40 143 -1 c78 -1 157 0 176 1 24 1 31 -2 25 -11 -5 -8 -3 -11 7 -7 59 22
76 19 42 -9 -17 -13 -16 -14 5 -8 34 10 26 -12 -10 -25 -18 -7 -36 -12 -40
-11 -10 1 -10 -2 3 -36 8 -21 12 -24 19 -13 5 8 12 11 17 7 7 -7 0 -14 -35
-35 -10 -7 -10 -15 3 -45 17 -41 19 -61 6 -52 -5 3 -12 1 -16 -5 -4 -6 -11 -7
-17 -4 -7 5 -2 11 13 16 14 5 19 12 13 16 -12 8 -28 43 -26 55 1 4 -3 7 -8 7
-12 0 -12 -2 0 -36 9 -21 7 -29 -7 -40 -13 -9 -14 -13 -4 -14 7 0 11 -6 7 -15
-3 -8 0 -15 6 -15 6 0 8 -3 5 -6 -4 -4 -13 -1 -22 6 -8 7 -15 8 -15 2 0 -17
-51 -21 -57 -5 -5 12 -7 12 -14 1 -7 -10 -59 -12 -266 -10 -142 2 -262 7 -266
11 -12 12 -21 666 -12 863 l7 167 37 4 c20 2 185 3 366 3 l330 -1 3 -147z
m-3888 -628 c0 -5 -2 -10 -4 -10 -2 0 -12 -3 -22 -7 -16 -6 -17 -5 -4 10 17
19 30 22 30 7z m-10 -40 c0 -5 -4 -10 -10 -10 -5 0 -10 5 -10 10 0 6 5 10 10
10 6 0 10 -4 10 -10z m3890 -20 c0 -5 -4 -10 -10 -10 -5 0 -10 5 -10 10 0 6 5
10 10 10 6 0 10 -4 10 -10z m-30 -10 c0 -5 -4 -10 -10 -10 -5 0 -10 5 -10 10
0 6 5 10 10 10 6 0 10 -4 10 -10z m-860 -10 c0 -5 -4 -10 -10 -10 -5 0 -10 5
-10 10 0 6 5 10 10 10 6 0 10 -4 10 -10z m900 -10 c0 -5 -4 -10 -10 -10 -5 0
-10 5 -10 10 0 6 5 10 10 10 6 0 10 -4 10 -10z m-980 -40 c0 -5 -4 -10 -10
-10 -5 0 -10 5 -10 10 0 6 5 10 10 10 6 0 10 -4 10 -10z m935 -20 c-3 -4 1
-10 7 -13 7 -2 10 -8 5 -12 -4 -5 -14 0 -21 11 -15 20 -12 39 5 28 5 -3 7 -9
4 -14z m-975 0 c0 -5 -4 -10 -10 -10 -5 0 -10 5 -10 10 0 6 5 10 10 10 6 0 10
-4 10 -10z m30 -10 c0 -5 -4 -10 -10 -10 -5 0 -10 5 -10 10 0 6 5 10 10 10 6
0 10 -4 10 -10z m-40 -20 c0 -5 -4 -10 -10 -10 -5 0 -10 5 -10 10 0 6 5 10 10
10 6 0 10 -4 10 -10z m1961 -34 c-6 -7 -8 -16 -4 -19 3 -4 1 -7 -5 -7 -10 0
-11 16 -3 48 1 2 6 0 11 -3 8 -5 8 -11 1 -19z m-2047 -5 c11 -4 15 -10 10 -13
-10 -6 -54 8 -54 17 0 7 21 5 44 -4z m2009 -14 c-4 -7 -8 -15 -8 -19 0 -3 -4
-10 -8 -14 -6 -7 -5 27 2 54 1 2 6 0 11 -3 6 -4 7 -12 3 -18z m-953 -21 c0 -3
-4 -8 -10 -11 -5 -3 -10 -1 -10 4 0 6 5 11 10 11 6 0 10 -2 10 -4z m850 -6 c0
-5 -4 -10 -10 -10 -5 0 -10 5 -10 10 0 6 5 10 10 10 6 0 10 -4 10 -10z m30
-10 c0 -5 -4 -10 -10 -10 -5 0 -10 5 -10 10 0 6 5 10 10 10 6 0 10 -4 10 -10z
m30 -4 c0 -3 -4 -8 -10 -11 -5 -3 -10 -1 -10 4 0 6 5 11 10 11 6 0 10 -2 10
-4z m-70 -16 c0 -5 -4 -10 -10 -10 -5 0 -10 5 -10 10 0 6 5 10 10 10 6 0 10
-4 10 -10z m30 -10 c0 -5 -4 -10 -10 -10 -5 0 -10 5 -10 10 0 6 5 10 10 10 6
0 10 -4 10 -10z m-40 -20 c0 -5 -4 -10 -10 -10 -5 0 -10 5 -10 10 0 6 5 10 10
10 6 0 10 -4 10 -10z m30 -10 c0 -5 -4 -10 -10 -10 -5 0 -10 5 -10 10 0 6 5
10 10 10 6 0 10 -4 10 -10z"/>
<path d="M8960 16439 c-371 -31 -700 -87 -1040 -175 -1660 -431 -3077 -1612
-3806 -3173 -280 -601 -440 -1181 -521 -1891 -25 -223 -25 -927 0 -1150 39
-342 83 -590 158 -880 315 -1225 1022 -2310 2027 -3112 915 -730 2028 -1162
3219 -1249 216 -15 787 -7 983 15 453 51 835 132 1225 261 1088 358 2034 1017
2755 1920 631 792 1052 1759 1199 2755 50 334 56 426 56 865 0 439 -6 531 -56
865 -282 1914 -1536 3593 -3298 4416 -599 279 -1183 441 -1881 520 -169 19
-849 28 -1020 13z m-2330 -2839 c603 -55 1145 -293 1544 -680 186 -180 313
-353 417 -566 60 -124 145 -363 155 -438 10 -72 -27 -120 -108 -140 -15 -3
-98 1 -185 9 -267 25 -648 36 -928 25 -709 -27 -1328 -142 -2048 -380 -150
-50 -285 -90 -300 -90 -35 0 -92 53 -103 94 -15 61 10 101 154 245 151 151
249 233 422 351 348 236 749 407 1181 504 64 14 126 26 137 26 50 0 22 21
-116 88 -169 82 -210 99 -382 157 -298 101 -612 172 -1085 245 -155 24 -188
37 -210 80 -38 73 -11 134 85 191 364 216 886 322 1370 279z m6106 -14 c256
-38 496 -112 704 -216 113 -57 159 -88 176 -121 29 -58 8 -136 -44 -163 -15
-7 -130 -30 -257 -51 -625 -100 -999 -206 -1377 -387 -138 -66 -166 -88 -116
-88 11 0 73 -12 137 -26 626 -140 1185 -437 1593 -844 114 -115 149 -156 158
-188 16 -53 7 -87 -36 -130 -30 -30 -39 -34 -77 -30 -23 3 -103 26 -177 53
-426 150 -906 272 -1340 339 -544 84 -1193 103 -1743 51 -87 -8 -170 -12 -185
-9 -83 20 -118 67 -107 143 12 81 93 310 154 435 155 318 411 606 731 823 342
231 809 389 1265 427 98 8 442 -4 541 -18z m329 -3416 c153 -76 303 -414 346
-775 16 -139 6 -448 -20 -600 -108 -630 -409 -1201 -886 -1681 -657 -661
-1534 -1039 -2635 -1136 -189 -16 -762 -16 -950 0 -941 84 -1715 372 -2347
873 -160 128 -420 388 -537 539 -344 443 -553 904 -637 1400 -40 240 -37 562
7 780 48 236 189 520 290 587 67 43 -64 42 3719 40 l3600 -2 50 -25z"/>
<path d="M6148 9766 c-162 -44 -257 -219 -245 -451 10 -196 98 -337 237 -375
48 -14 6462 -14 6510 0 139 38 228 180 237 375 10 210 -67 374 -206 439 l-46
21 -3220 2 c-2578 1 -3229 -1 -3267 -11z"/>
<path d="M9075 7009 c-407 -33 -789 -122 -1126 -260 -68 -28 -136 -56 -151
-62 -16 -6 -28 -14 -28 -18 0 -9 240 -99 365 -138 240 -73 488 -125 760 -157
215 -26 785 -26 1000 0 278 33 556 92 792 167 122 39 333 120 333 128 0 3 -55
29 -123 58 -326 138 -647 221 -1042 269 -155 18 -621 27 -780 13z"/>
<path d="M8377 2595 c-80 -28 -127 -99 -127 -193 0 -49 5 -66 29 -99 48 -67
130 -91 204 -59 46 19 112 97 127 150 19 68 5 124 -40 167 -52 50 -118 61
-193 34z"/>
<path d="M9880 2094 c0 -8 5 -12 10 -9 6 4 8 11 5 16 -9 14 -15 11 -15 -7z"/>
<path d="M9840 2069 c0 -5 5 -7 10 -4 6 3 10 8 10 11 0 2 -4 4 -10 4 -5 0 -10
-5 -10 -11z"/>
<path d="M9765 2030 c-3 -5 -1 -10 4 -10 6 0 11 5 11 10 0 6 -2 10 -4 10 -3 0
-8 -4 -11 -10z"/>
<path d="M7025 2220 c3 -5 8 -10 11 -10 2 0 4 5 4 10 0 6 -5 10 -11 10 -5 0
-7 -4 -4 -10z"/>
<path d="M7010 2180 c0 -5 5 -10 11 -10 5 0 7 5 4 10 -3 6 -8 10 -11 10 -2 0
-4 -4 -4 -10z"/>
<path d="M11300 2505 l0 -135 31 0 c54 0 119 22 149 50 26 24 30 35 30 80 0
98 -44 140 -150 140 l-60 0 0 -135z"/>
<path d="M11635 1930 c3 -5 8 -10 11 -10 2 0 4 5 4 10 0 6 -5 10 -11 10 -5 0
-7 -4 -4 -10z"/>
<path d="M10775 2130 c-3 -5 -1 -10 4 -10 6 0 11 5 11 10 0 6 -2 10 -4 10 -3
0 -8 -4 -11 -10z"/>
<path d="M10745 2040 c3 -5 8 -10 11 -10 2 0 4 5 4 10 0 6 -5 10 -11 10 -5 0
-7 -4 -4 -10z"/>
<path d="M10715 1960 c-3 -5 -1 -10 4 -10 6 0 11 5 11 10 0 6 -2 10 -4 10 -3
0 -8 -4 -11 -10z"/>
<path d="M10695 1920 c-3 -5 -1 -10 4 -10 6 0 11 5 11 10 0 6 -2 10 -4 10 -3
0 -8 -4 -11 -10z"/>
</g>
</svg>
